<svg width="3093" height="2480" viewBox="0 0 3093 2480" fill="none" xmlns="http://www.w3.org/2000/svg">
<g clip-path="url(#clip0_201_2)">
<path d="M3.81184 1199.72C5.64853 1156.84 53.4905 1096.49 69.1967 1077.84C58.208 1063.99 53.088 1053.45 58.6358 1045.02C64.5799 1036.07 78.2733 1036.07 82.7581 1036.07C91.0043 1036.07 101.509 1037.27 113.711 1038.64C141.916 1041.89 183.581 1045.26 217.635 1040.19C287.461 1029.9 383.069 1023.99 479.993 1023.99C505.021 1023.99 528.565 1024.44 549.586 1025.18C628.708 1027.83 770.574 997.313 952.815 957.757L1021.1 942.985C1111.8 923.442 1181.77 913.536 1229.03 913.536C1254.01 913.536 1268.03 916.346 1275.8 919.316C1281.12 918.045 1286.22 917.41 1291.04 917.41C1316.71 917.41 1328.45 934.517 1332.88 949.249C1346.55 948.452 1355.85 954.696 1361.64 960.687C1383.42 959.457 1393.08 971.016 1393.94 972.287L1395.63 974.592V1074.41C1439.77 1083.22 1677.54 1094.5 1858.01 1101.24C1852.68 1097.09 1848.29 1092.43 1844.99 1087.22C1834.67 1071.24 1837.04 1054.65 1840.24 1044.56L1641.2 974.416L1639.76 969.644C1639.47 968.6 1632.45 944.261 1650.72 925.686C1663.36 912.835 1684.14 906.294 1712.5 906.294C1720.64 906.294 1729.74 906.829 1739.96 908.034C1842.72 920.158 2255.17 1074.26 2293.54 1088.66C2781.37 1104.1 3085.6 1306.62 3088.67 1308.66L3093 1311.65V1423.54L3090.41 1426.17C3030.72 1488.46 2806.71 1516.02 2600.19 1522.45C2603.44 1519.04 2606.79 1515.73 2609.82 1512.13C2612.59 1508.87 2614.95 1505.44 2617.48 1502.08C2642.89 1468.31 2657.81 1429 2657.81 1386.78C2657.81 1263.31 2532.53 1162.85 2378.52 1162.85C2224.52 1162.85 2099.24 1263.31 2099.24 1386.78C2099.24 1420.29 2108.72 1451.92 2125.21 1480.5C2127.18 1483.9 2129.17 1487.35 2131.34 1490.63C2133.61 1494.1 2136.14 1497.44 2138.64 1500.79C1927.6 1492.83 1509.71 1491.52 1129.98 1490.37C993.511 1489.9 860.144 1489.52 739.451 1488.81C741.621 1485.61 743.382 1482.24 745.376 1478.97C747.338 1475.68 749.502 1472.46 751.295 1469.11C766.668 1440.41 775.266 1408.78 775.266 1375.69C775.266 1244.69 642.326 1138.11 478.98 1138.11C315.615 1138.11 182.701 1244.69 182.701 1375.69C182.701 1401.01 187.77 1425.41 196.991 1448.29C198.627 1452.39 200.589 1456.42 202.533 1460.44C204.401 1464.3 206.294 1468.18 208.357 1471.95C144.916 1459.97 95.1306 1438.24 60.4158 1406.44C-9.78098 1342.08 -1.44032 1255.38 2.54128 1213.64C3.18286 1208.22 3.61056 1203.42 3.81184 1199.72Z" fill="black"/>
</g>
<defs>
<clipPath id="clip0_201_2">
<rect width="3093" height="2480" fill="white" transform="matrix(-1 0 0 1 3093 0)"/>
</clipPath>
</defs>
</svg>
