<?xml version="1.0" standalone="no"?>
<!DOCTYPE svg PUBLIC "-//W3C//DTD SVG 20010904//EN"
 "http://www.w3.org/TR/2001/REC-SVG-20010904/DTD/svg10.dtd">
<svg version="1.0" xmlns="http://www.w3.org/2000/svg"
 width="5000.000000pt" height="4000.000000pt" viewBox="0 0 5000.000000 4000.000000"
 preserveAspectRatio="xMidYMid meet">

<g transform="translate(0.000000,4000.000000) scale(0.100000,-0.100000)"
fill="#000000" stroke="none">
<path d="M21605 25953 c-979 -17 -2062 -159 -3155 -414 -1129 -263 -1936 -575
-2935 -1132 -132 -74 -355 -198 -495 -277 -879 -493 -1479 -733 -2280 -914
-1075 -243 -2544 -326 -4346 -245 -308 14 -336 9 -419 -74 -86 -86 -110 -213
-59 -313 11 -21 45 -86 75 -144 173 -331 255 -630 266 -965 13 -400 -93 -763
-328 -1125 -251 -387 -378 -782 -420 -1310 -20 -257 -1 -654 46 -965 53 -345
163 -774 277 -1082 l42 -113 1297 0 1296 0 6 158 c27 679 244 1349 620 1912
634 951 1640 1555 2774 1665 81 8 153 15 158 16 6 1 -28 8 -75 15 -143 24
-605 29 -805 10 -621 -59 -1316 -247 -2025 -547 l-115 -49 -1149 0 -1148 0 16
23 c123 173 298 492 376 684 143 357 190 693 135 958 -19 90 -19 92 7 98 13 3
93 23 178 46 308 80 647 147 1025 200 1192 169 2371 120 3385 -140 200 -52
269 -72 595 -179 328 -107 573 -179 890 -259 2706 -682 7010 -1042 10135 -846
235 15 762 57 757 61 -1 1 -92 7 -202 13 -996 57 -2284 167 -3350 287 -3770
423 -6446 1070 -7750 1873 -196 120 -202 125 -187 144 21 24 221 162 374 256
970 598 2255 1067 3643 1330 1849 350 3873 354 6155 11 1075 -161 2202 -406
3290 -715 848 -240 1748 -544 2390 -805 96 -40 184 -74 195 -77 30 -9 -131
125 -285 237 -539 391 -1356 829 -2305 1235 -879 376 -1916 744 -2700 959
-941 258 -1798 407 -2707 471 -219 15 -838 36 -958 33 -36 -1 -128 -3 -205 -5z"/>
<path d="M34050 22453 c-74 -1 -461 -9 -860 -18 -399 -8 -934 -20 -1190 -25
-256 -5 -728 -23 -1050 -40 -2411 -125 -3962 -191 -5510 -235 -3477 -99 -6067
-52 -7775 141 -249 28 -646 84 -809 114 -60 11 -111 18 -113 16 -6 -5 253
-102 434 -162 1291 -427 3152 -728 5198 -839 953 -51 1423 -57 3675 -46 2685
13 5875 -3 8080 -40 665 -11 731 -10 1155 19 319 21 1343 24 1620 4 467 -34
779 -69 1135 -128 894 -148 1645 -400 2175 -731 273 -170 486 -344 740 -604
464 -474 823 -1068 1095 -1809 162 -441 299 -980 371 -1462 13 -87 27 -158 30
-158 3 0 11 57 18 128 48 531 38 1091 -29 1592 -59 437 -169 874 -316 1247
-142 362 -366 746 -597 1023 -217 260 -654 665 -968 897 -878 649 -1838 939
-3469 1047 -852 57 -2107 86 -3040 69z"/>
<path d="M35930 20604 c-887 -65 -1604 -394 -2200 -1010 -506 -523 -898 -1269
-1151 -2186 l-43 -158 -6696 0 -6696 0 -18 53 c-72 206 -247 584 -385 831
-672 1205 -1544 1910 -2536 2051 -55 8 -106 15 -114 15 -29 0 108 -128 214
-200 668 -455 1156 -1073 1437 -1820 90 -242 166 -551 204 -840 20 -150 26
-629 10 -817 l-8 -103 7939 0 7938 0 -4 216 c-13 792 159 1585 478 2199 492
948 1328 1511 2481 1670 63 9 120 17 125 19 16 4 -215 46 -343 62 -116 14
-525 26 -632 18z"/>
<path d="M13997 19710 c-989 -83 -1851 -659 -2301 -1538 -211 -415 -307 -816
-308 -1287 0 -476 93 -870 304 -1287 335 -664 929 -1175 1638 -1411 735 -244
1580 -168 2252 204 1113 616 1682 1869 1408 3104 -258 1169 -1226 2053 -2411
2200 -156 19 -441 26 -582 15z"/>
<path d="M37265 19713 c-675 -42 -1310 -321 -1793 -788 -160 -154 -268 -283
-391 -467 -300 -446 -459 -941 -478 -1483 -27 -793 268 -1538 831 -2100 321
-321 681 -543 1106 -685 558 -186 1176 -193 1735 -20 780 241 1432 822 1761
1571 95 216 170 477 209 729 25 161 31 550 11 724 -125 1077 -826 1973 -1840
2350 -346 129 -778 193 -1151 169z"/>
</g>
</svg>
