<?xml version="1.0" encoding="iso-8859-1"?>
<!-- Uploaded to: SVG Repo, www.svgrepo.com, Generator: SVG Repo Mixer Tools -->
<svg fill="#000000" height="800px" width="800px" version="1.1" id="Layer_1" xmlns="http://www.w3.org/2000/svg" xmlns:xlink="http://www.w3.org/1999/xlink" 
	 viewBox="0 0 512.003 512.003" xml:space="preserve">
<g transform="translate(0 -1)">
	<g>
		<g>
			<path d="M256.001,86.336c14.14,0,25.6-11.464,25.6-25.6c0-14.142-11.458-25.6-25.6-25.6c-14.142,0-25.6,11.458-25.6,25.6
				C230.401,74.872,241.861,86.336,256.001,86.336z M256.001,52.203c4.716,0,8.533,3.817,8.533,8.533
				c0,4.712-3.82,8.533-8.533,8.533c-4.713,0-8.533-3.822-8.533-8.533C247.468,56.019,251.285,52.203,256.001,52.203z"/>
			<path d="M256.001,154.603c14.14,0,25.6-11.464,25.6-25.6c0-14.142-11.458-25.6-25.6-25.6c-14.142,0-25.6,11.458-25.6,25.6
				C230.401,143.138,241.861,154.603,256.001,154.603z M256.001,120.469c4.716,0,8.533,3.817,8.533,8.533
				c0,4.712-3.82,8.533-8.533,8.533c-4.713,0-8.533-3.822-8.533-8.533C247.468,124.286,251.285,120.469,256.001,120.469z"/>
			<path d="M256.001,171.669c-14.142,0-25.6,11.458-25.6,25.6c0,14.136,11.46,25.6,25.6,25.6c14.14,0,25.6-11.464,25.6-25.6
				C281.601,183.127,270.143,171.669,256.001,171.669z M256.001,205.803c-4.713,0-8.533-3.822-8.533-8.533
				c0-4.717,3.817-8.533,8.533-8.533c4.716,0,8.533,3.817,8.533,8.533C264.535,201.981,260.714,205.803,256.001,205.803z"/>
			<path d="M332.801,1.003h-25.549c-0.017,0-0.034-0.003-0.051-0.003h-102.4c-0.017,0-0.034,0.002-0.051,0.003h-25.549
				c-4.713,0-8.533,3.82-8.533,8.533s3.82,8.533,8.533,8.533h17.067v230.397c0,4.713,3.82,8.533,8.533,8.533h25.6v204.803
				c-23.563,0-42.667,19.104-42.667,42.667c0,4.713,3.82,8.533,8.533,8.533h119.467c4.713,0,8.533-3.821,8.533-8.533
				c0-23.563-19.104-42.667-42.667-42.667V257h25.6c4.713,0,8.533-3.82,8.533-8.533V18.069h17.067c4.713,0,8.533-3.821,8.533-8.533
				S337.514,1.003,332.801,1.003z M305.744,495.936h-99.486c3.515-9.942,12.998-17.067,24.143-17.067h51.2
				C292.747,478.869,302.23,485.993,305.744,495.936z M264.535,461.8h-17.067V257h17.067V461.8z M298.668,239.933h-25.6h-34.133
				h-25.6V18.069h85.333V239.933z"/>
		</g>
	</g>
</g>
</svg>